<?xml version="1.0" encoding="utf-8"?>
<!-- Generator: Adobe Illustrator 20.1.0, SVG Export Plug-In . SVG Version: 6.00 Build 0)  -->
<svg version="1.1" id="Layer_1" xmlns="http://www.w3.org/2000/svg" xmlns:xlink="http://www.w3.org/1999/xlink" x="0px" y="0px"
	 viewBox="0 0 100 100" style="enable-background:new 0 0 100 100;" xml:space="preserve">
<style type="text/css">
	.st0{fill:#3ED695;}
	.st1{fill:#1A1A1A;}
</style>
<g>
	<circle class="st0" cx="50" cy="50" r="50"/>
	<g>
		<g>
			<g>
				<g>
					<circle class="st1" cx="48.7" cy="36.6" r="5.5"/>
					<circle class="st1" cx="48.7" cy="63.5" r="5.5"/>
				</g>
				<g>
					<circle class="st1" cx="62.2" cy="50" r="5.5"/>
					<circle class="st1" cx="35.3" cy="50" r="5.5"/>
				</g>
			</g>
			<circle class="st1" cx="48.9" cy="49.3" r="3"/>
		</g>
		<path class="st1" d="M92,55c-7,5.1-13.9,9.1-19.9,12.1c3.5-4.8,5.8-10.7,5.8-17.1c0-15.9-12.9-28.9-28.8-28.9S20.3,34.1,20.3,50
			s13,28.9,28.9,28.9c2.1,0,4.1-0.2,6-0.6c3.2-0.6,6.6-1.7,10.7-3.3c8-3.2,17.1-8.2,26.1-14.5C92,60.5,92,55,92,55z M53,74.1
			c-3.2,0.4-7.8,0-7.8,0c-11.6-1.9-20.4-12-20.4-24.1c0-13.4,10.9-24.4,24.4-24.4s24.4,11,24.4,24.4C73.6,62.2,64.6,72.3,53,74.1z"
			/>
	</g>
</g>
</svg>
