<?xml version="1.0" encoding="utf-8"?>
<!-- Generator: Adobe Illustrator 20.1.0, SVG Export Plug-In . SVG Version: 6.00 Build 0)  -->
<svg version="1.1" id="Layer_1" xmlns="http://www.w3.org/2000/svg" xmlns:xlink="http://www.w3.org/1999/xlink" x="0px" y="0px"
	 viewBox="0 0 100 100" style="enable-background:new 0 0 100 100;" xml:space="preserve">
<style type="text/css">
	.st0{fill:#FFE000;}
	.st1{fill:#1A1A1A;}
</style>
<g>
	<circle class="st0" cx="50" cy="50" r="50"/>
	<g id="laptop_1_">
		<path class="st1" d="M76.5,71.6c0-0.1,0-0.2-0.1-0.3l-4-8.3c-0.7-1.3-1-2.2-2.2-2.2H30c-1.2,0-1.6,1-2.2,2.2l-4,8.3
			c-0.3,0.3-0.4,0.7-0.4,1.1c0,1.1,1,1.9,2.1,1.9h49c1.2,0,2.1-0.9,2.1-1.9C76.7,72.1,76.6,71.9,76.5,71.6z M54.6,73.1h-9.2
			c-0.3,0-0.5-0.2-0.5-0.5s0.2-0.5,0.5-0.5h9.2c0.3,0,0.5,0.2,0.5,0.5S54.9,73.1,54.6,73.1z"/>
		<path class="st1" d="M31.8,59.3h36.4c3.3,0,5.9-2.7,5.9-5.9V31.6c0-3.3-2.7-5.9-5.9-5.9H31.8c-3.3,0-5.9,2.7-5.9,5.9v21.8
			C25.8,56.6,28.5,59.3,31.8,59.3z M62.4,58.1h-4.8c-0.3,0-0.6-0.3-0.6-0.6s0.3-0.6,0.6-0.6h4.8c0.3,0,0.6,0.3,0.6,0.6
			S62.7,58.1,62.4,58.1z M64.4,58.1c-0.3,0-0.6-0.3-0.6-0.6s0.3-0.6,0.6-0.6c0.3,0,0.6,0.3,0.6,0.6C65.1,57.8,64.8,58.1,64.4,58.1z
			 M29.3,31.6c0-1.4,1.1-2.5,2.5-2.5h36.4c1.4,0,2.5,1.1,2.5,2.5v21.8c0,1.4-1.1,2.5-2.5,2.5H31.8c-1.4,0-2.5-1.1-2.5-2.5V31.6z"/>
		<circle class="st1" cx="38.3" cy="47.3" r="3"/>
		<circle class="st1" cx="38.3" cy="37.4" r="3"/>
		<rect x="43" y="48.2" class="st1" width="16.8" height="1.2"/>
		<rect x="43" y="45.2" class="st1" width="22.7" height="1.2"/>
		<rect x="43" y="38.3" class="st1" width="16.8" height="1.2"/>
		<rect x="43" y="35.2" class="st1" width="22.7" height="1.2"/>
	</g>
</g>
</svg>
