<svg xmlns="http://www.w3.org/2000/svg" width="66.014" height="70" viewBox="0 0 66.014 70">
  <g id="Group_43929" data-name="Group 43929" transform="translate(-535.773 -1591.43)">
    <path id="draw_FILL0_wght400_GRAD0_opsz48" d="M162.778,286a2.991,2.991,0,0,1-2.917-2.917,2.752,2.752,0,0,1,.875-2.09,2.88,2.88,0,0,1,2.042-.826,18.677,18.677,0,0,0,9.674-2.333q3.937-2.333,3.937-5.444,0-2.236-2.868-4.375a21.119,21.119,0,0,0-7.729-3.306l4.569-4.569q6.125,1.847,8.993,5.1a10.585,10.585,0,0,1,2.868,7.146q0,6.514-5.931,10.062A25.806,25.806,0,0,1,162.778,286Zm-31.111-28.583q-6.222-1.361-8.944-4.278a8.346,8.346,0,0,1-.194-12.153q2.528-2.722,11.667-6.028,6.417-2.333,8.264-3.792a4.259,4.259,0,0,0,1.847-3.4,5.25,5.25,0,0,0-2.139-4.181q-2.139-1.75-6.611-1.75a12.985,12.985,0,0,0-4.472.681,9.075,9.075,0,0,0-3.306,2.139,3.278,3.278,0,0,1-1.993.924,2.834,2.834,0,0,1-2.187-.632A2.464,2.464,0,0,1,122.479,223a2.791,2.791,0,0,1,.729-2.042,12.084,12.084,0,0,1,4.958-3.549,18.656,18.656,0,0,1,7.389-1.41q6.611,0,10.6,3.16a10.391,10.391,0,0,1,3.986,8.6,9.194,9.194,0,0,1-2.771,6.757q-2.771,2.771-10.84,5.785a48.252,48.252,0,0,0-8.6,3.84q-2.09,1.41-2.09,2.965t2.625,2.965a34.587,34.587,0,0,0,7.875,2.674Zm48.222-14.972L167.444,230l4.375-4.375a5.2,5.2,0,0,1,7.778,0l4.667,4.667a5.2,5.2,0,0,1,0,7.778Zm-50.167,37.722h4.083l33.542-33.542-4.083-4.083-33.542,33.542ZM123.889,286V273.556l39.375-39.375,12.444,12.444L136.333,286Zm39.375-43.458,4.083,4.083Z" transform="translate(415.773 1375.43)" fill="#30c1db"/>
  </g>
</svg>
