<?xml version="1.0" encoding="utf-8"?>
<!-- Generator: Adobe Illustrator 19.0.1, SVG Export Plug-In . SVG Version: 6.00 Build 0)  -->
<svg version="1.1" id="Layer_1" xmlns="http://www.w3.org/2000/svg" xmlns:xlink="http://www.w3.org/1999/xlink" x="0px" y="0px"
	 viewBox="0 0 100 100" style="enable-background:new 0 0 100 100;" xml:space="preserve">
<style type="text/css">
	.st0{fill:#2FDBFA;}
	.st1{fill:#1A1A1A;}
</style>
<g>
	<circle class="st0" cx="50" cy="50" r="50"/>
	<g id="page-layout_1_">
		<g>
			<path class="st1" d="M71.3,22.2v56H28.7v-56h41.7H71.3z M69.4,24c-1.7,0-37.3,0-39,0c0,1.7,0,50.6,0,52.4c1.7,0,37.3,0,39,0
				C69.4,74.7,69.4,25.8,69.4,24z"/>
			<g>
				<rect x="34.8" y="51.1" class="st1" width="12" height="1.1"/>
				<rect x="34.8" y="54.1" class="st1" width="12" height="1.1"/>
				<rect x="34.8" y="57.1" class="st1" width="12" height="1.1"/>
				<rect x="34.8" y="60.1" class="st1" width="12" height="1.1"/>
				<rect x="34.8" y="65" class="st1" width="14.7" height="7.1"/>
				<polygon class="st1" points="64.7,51.1 64.2,51.1 50.3,51.1 50.3,61.2 64.7,61.2 				"/>
				<rect x="53" y="71" class="st1" width="12.2" height="1.1"/>
				<rect x="53" y="68" class="st1" width="12.2" height="1.1"/>
				<rect x="53" y="65" class="st1" width="12.2" height="1.1"/>
				<rect x="34.8" y="43.2" class="st1" width="30.4" height="1.1"/>
				<rect x="34.8" y="46.5" class="st1" width="30.4" height="1.1"/>
				<rect x="34.8" y="40.1" class="st1" width="30.4" height="1.1"/>
				<rect x="34.8" y="28.3" class="st1" width="30.4" height="8.7"/>
			</g>
		</g>
	</g>
</g>
</svg>
