<svg xmlns="http://www.w3.org/2000/svg" width="69.738" height="70" viewBox="0 0 69.738 70">
  <path id="slow_motion_video_FILL0_wght400_GRAD0_opsz48" d="M88.419,222.344a30.666,30.666,0,0,1-5.193-8.772A34.007,34.007,0,0,1,81,203.491h5.411a31.06,31.06,0,0,0,1.92,7.943,24.784,24.784,0,0,0,4.1,6.983ZM81,196.509a28.836,28.836,0,0,1,2.138-10.037,33.949,33.949,0,0,1,5.281-8.815l4.015,3.928a30.68,30.68,0,0,0-4.059,7.07,28.819,28.819,0,0,0-1.964,7.855ZM112.421,235a47.835,47.835,0,0,1-9.95-2.444,34.66,34.66,0,0,1-8.9-4.8l4.015-4.19a41.6,41.6,0,0,0,7.07,3.884,34.582,34.582,0,0,0,7.768,2.313ZM97.758,176.434l-4.19-4.19A33.478,33.478,0,0,1,102.6,167.4a50.434,50.434,0,0,1,10.081-2.4v5.237a37.434,37.434,0,0,0-7.855,2.226A32.587,32.587,0,0,0,97.758,176.434Zm9.95,38.491v-29.85L131.1,200ZM119.666,235v-5.237a29.518,29.518,0,0,0,18.5-10.081,30.084,30.084,0,0,0,0-39.364,29.518,29.518,0,0,0-18.5-10.081V165a32.759,32.759,0,0,1,22.257,11.39,35.965,35.965,0,0,1,0,47.176A33.169,33.169,0,0,1,119.666,235Z" transform="translate(-81 -165)" fill="#e8216d"/>
</svg>
