<?xml version="1.0" encoding="utf-8"?>
<!-- Generator: Adobe Illustrator 19.0.1, SVG Export Plug-In . SVG Version: 6.00 Build 0)  -->
<svg version="1.1" id="Layer_1" xmlns="http://www.w3.org/2000/svg" xmlns:xlink="http://www.w3.org/1999/xlink" x="0px" y="0px"
	 viewBox="0 0 100 100" style="enable-background:new 0 0 100 100;" xml:space="preserve">
<style type="text/css">
	.st0{fill:#2FDBFA;}
	.st1{fill:#1A1A1A;}
</style>
<g>
	<circle class="st0" cx="50" cy="50" r="50"/>
	<g id="_x33_D">
		<path class="st1" d="M26.2,37.1v28.7c0,0.6,0.4,1.3,1,1.6l22.9,11.4V47.9L27.2,36.5C26.7,36.2,26.2,36.5,26.2,37.1z"/>
		<path class="st1" d="M75.4,33.3l-23-11.5c-0.5-0.3-1.4-0.3-2,0L27.2,33.4c-0.5,0.3-0.5,0.7,0,1l23,11.5c0.5,0.3,1.4,0.3,2,0
			l23.2-11.6C76,34.1,76,33.6,75.4,33.3z"/>
		<path class="st1" d="M75.4,36.4L52.2,48v30.8l23.2-11.6c0.5-0.3,1-1,1-1.6V37C76.4,36.4,76,36.1,75.4,36.4z"/>
	</g>
</g>
</svg>
